# xmcd
#
# Track frame offsets:
#	150
#	12512
#	25887
#	40105
#	52975
#	66525
#	79852
#	92942
#	107792
#	120620
#	133270
#	147145
#	162565
#	175452
#	188240
#	201810
#	215867
#	231280
#
# Disc length: 3264 seconds
#
# Revision: 0
# Processed by: cddbd v1.5.1PL0 Copyright (c) Steve Scherf et al.
# Submitted via: dBpowerAMP V4.0
#
DISCID=130cbe12
DTITLE=Various Artist - Guitar Blues Legends
DYEAR=1998
DGENRE=Blues
TTITLE0=Muddy Waters - I can't be satisfied
TTITLE1=Arthur Crudup - Rock me mama
TTITLE2=John Lee Hooker - Boogie Chillen
TTITLE3=Lightnin' Hopkins
TTITLE4=Memphis Minnie - Fashion Plate Daddy
TTITLE5=Bikka White - Black Train Blues
TTITLE6=Robert Lockwood - Take a little walk with me
TTITLE7=Big Bill Broonzy - Gettin older every day
TTITLE8=Buddy Woods - Muscat Hill Blues
TTITLE9=Robert Johnson - Travellin Riverside Blues
TTITLE10=Buddy Moss - My baby won't pay me no mind
TTITLE11=Casey Bill Weldon - Two timin' women
TTITLE12=Browne Mc Ghee -Goodbye now
TTITLE13=Charley Patton - High Sheriff Blues
TTITLE14=Joshua White - Little brother blues
TTITLE15=Tampa Red - King Fish Blues
TTITLE16=Son House - Shetland Pony Blues
TTITLE17=Blind Boy Fuller - My brownskin sugar plum
EXTD=
EXTT0=
EXTT1=
EXTT2=
EXTT3=
EXTT4=
EXTT5=
EXTT6=
EXTT7=
EXTT8=
EXTT9=
EXTT10=
EXTT11=
EXTT12=
EXTT13=
EXTT14=
EXTT15=
EXTT16=
EXTT17=
PLAYORDER=
